PathFileType	4	(X/Y/Z)	C:/Users/opensim2020/Desktop/walking_exp_matlab/subject03_walking15_straight_03.trc	
DataRate	CameraRate	NumFrames	NumMarkers	Units	OrigDataRate	OrigDataStartFrame	OrigNumFrames	
100.00	100.00	6	47	mm	100.00	1769	220	
Frame#	Time	LFHD			RFHD			LBHD			RBHD			C7			T10			CLAV			STRN			RBAK			LSHO			LUPA			LELB			LFRM			LWRA			LWRB			LFIN			RSHO			RUPA			RELB			RFRM			RWRA			RWRB			RFIN			LASI			RASI			LPSI			RPSI			LTHI			LKNE			LTIB			LANK			LHEE			LTOE			RTHI			RKNE			RTIB			RANK			RHEE			RTOE			*39			*40			*41			*42			*43			*44			*45			*46			
		X1	Y1	Z1	X2	Y2	Z2	X3	Y3	Z3	X4	Y4	Z4	X5	Y5	Z5	X6	Y6	Z6	X7	Y7	Z7	X8	Y8	Z8	X9	Y9	Z9	X10	Y10	Z10	X11	Y11	Z11	X12	Y12	Z12	X13	Y13	Z13	X14	Y14	Z14	X15	Y15	Z15	X16	Y16	Z16	X17	Y17	Z17	X18	Y18	Z18	X19	Y19	Z19	X20	Y20	Z20	X21	Y21	Z21	X22	Y22	Z22	X23	Y23	Z23	X24	Y24	Z24	X25	Y25	Z25	X26	Y26	Z26	X27	Y27	Z27	X28	Y28	Z28	X29	Y29	Z29	X30	Y30	Z30	X31	Y31	Z31	X32	Y32	Z32	X33	Y33	Z33	X34	Y34	Z34	X35	Y35	Z35	X36	Y36	Z36	X37	Y37	Z37	X38	Y38	Z38	X39	Y39	Z39	X40	Y40	Z40	X41	Y41	Z41	X42	Y42	Z42	X43	Y43	Z43	X44	Y44	Z44	X45	Y45	Z45	X46	Y46	Z46	X47	Y47	Z47	

193	1.920	1291.71460	1030.69153	1607.36829	1422.73352	1048.82751	1625.15637	1320.52490	922.33429	1532.30029	1447.75757	944.58984	1550.18323	1382.11841	933.69458	1389.70740	1391.94861	926.46844	1078.74365	1372.15637	1061.26855	1324.19031	1370.74231	1119.58496	1163.40417	1488.38623	907.34357	1216.60376	1220.13928	997.84747	1354.31787	1160.94629	957.46368	1155.97485	1154.44006	942.93121	1032.90247	1154.96533	930.26990	902.05023	1185.15698	905.30481	783.34375	1130.89844	890.05762	796.46881	1149.40137	847.45709	718.12402	1534.06165	1029.73743	1351.48157	1621.25818	1090.93518	1147.23340	1632.30688	1143.91174	1048.68726	1619.44995	1220.77527	938.70679	1567.82642	1270.34668	859.76770	1622.08240	1275.12305	856.75507	1595.16846	1324.88464	807.68756	1280.96716	1103.25439	925.71039	1517.86035	1093.02466	925.81909	1320.88208	938.58899	935.80847	1469.47705	934.82178	951.99762	1236.92981	1128.45801	627.99951	1281.91614	1197.98193	471.92178	1283.61389	1204.19629	272.22150	1321.09473	1251.39331	68.79786	1362.56409	1220.51318	30.14526	1333.59363	1403.01379	58.11700	1572.22827	989.63275	642.01849	1551.68860	959.91736	461.97733	1562.03589	832.11749	311.51160	1526.42395	702.43652	134.81763	1476.87561	649.51385	125.24274	1510.91626	810.22369	36.16811	1353.85669	943.37793	1648.21191																					 
194	1.930	1288.64050	1043.56958	1607.60303	1419.71594	1061.66724	1625.45801	1317.47668	935.63306	1532.03271	1444.76318	957.79340	1549.93152	1378.55151	946.85004	1389.52869	1390.71362	943.75677	1077.13647	1369.29565	1074.96399	1324.48108	1368.53406	1133.88318	1164.00635	1484.79468	920.80652	1216.51294	1216.95068	1012.39935	1354.08130	1157.98792	972.52600	1155.47815	1151.96277	957.20428	1032.51025	1152.66516	943.38184	901.77289	1184.14246	916.45569	783.00513	1128.48901	902.55426	796.26233	1147.96680	856.29565	719.71710	1531.05017	1042.35852	1351.88501	1618.51282	1103.63818	1147.68323	1629.81982	1156.45361	1049.13379	1617.00989	1233.36401	939.26245	1565.21301	1283.02124	860.46698	1619.62195	1287.89624	857.44720	1592.13953	1338.23987	809.72931	1278.99976	1118.59045	926.48517	1516.02271	1111.31335	926.68707	1318.96631	954.06146	936.39221	1467.84351	950.08087	951.36945	1236.13721	1147.84521	629.56464	1280.26709	1212.51013	472.33072	1282.89404	1214.66919	272.43805	1319.76099	1257.08887	68.55495	1361.15076	1223.58252	32.40042	1336.53467	1408.08472	49.82399	1571.54138	1007.05853	640.89783	1552.54309	979.37970	460.60825	1561.93213	846.32935	314.17108	1526.01355	710.83459	142.60583	1475.89246	658.65417	136.12079	1510.40417	811.23889	35.73346	1350.76489	956.04218	1647.73120																					 
195	1.940	1285.59998	1056.45959	1608.16638	1416.60754	1074.54944	1626.11743	1314.47986	948.70160	1532.33276	1441.70947	970.88458	1550.31860	1374.57507	960.22144	1389.45044	1388.15295	956.46008	1078.29028	1366.51453	1088.53772	1325.12842	1366.35413	1148.02808	1164.84619	1481.13623	934.13049	1216.41736	1213.70874	1026.78284	1354.04211	1155.08374	988.29572	1155.10168	1149.50391	972.07013	1032.18018	1150.45349	957.39648	901.50238	1181.87476	929.59857	782.98480	1126.03003	916.36658	796.06836	1146.10962	866.94080	721.08405	1528.15625	1054.77612	1352.59619	1615.59595	1116.15967	1148.25745	1627.23364	1168.78064	1049.61829	1614.72742	1245.66260	939.75250	1562.97156	1295.28540	861.12622	1617.30884	1299.93823	857.75305	1589.56384	1350.65942	811.10742	1276.98206	1133.68811	927.35358	1513.55627	1125.81238	926.53882	1316.97388	969.48468	937.14099	1466.29358	965.55542	951.19507	1233.42859	1164.39270	632.44141	1278.32312	1226.34717	473.08011	1280.12622	1226.20215	273.63556	1318.13660	1262.39209	67.88340	1358.94617	1226.33203	34.25484	1339.09827	1412.56921	43.41613	1570.37830	1025.51465	639.72412	1553.48083	1000.23743	459.26025	1561.83240	862.29840	317.18442	1525.18408	721.11487	151.11566	1473.70593	670.40863	147.81276	1510.11926	812.87726	35.80474	1348.01697	968.58972	1648.52820																					 
196	1.950	1282.47559	1069.43787	1608.86133	1413.48669	1087.46216	1626.81091	1311.30188	961.79370	1533.00159	1438.52087	983.83990	1551.03674	1370.85559	973.72760	1389.78320	1386.59167	971.04510	1078.10754	1363.82373	1102.08032	1326.00708	1364.15234	1162.14929	1165.85156	1477.59436	947.40808	1216.47986	1210.58142	1041.16919	1354.16919	1152.29138	1004.25690	1154.87256	1147.08630	987.41205	1032.10828	1148.07178	972.55347	901.56866	1179.66382	944.08936	782.98364	1123.92334	931.47302	795.78455	1143.33801	879.80908	722.47662	1525.25244	1067.09583	1353.62695	1612.62158	1128.48315	1149.00806	1624.47668	1180.86719	1050.23669	1612.26855	1257.26489	939.92114	1560.72229	1306.74268	861.23175	1615.08716	1311.33020	857.91553	1587.41870	1362.15710	811.65588	1274.86523	1148.56897	928.48932	1511.06641	1141.36584	926.97955	1315.00500	984.17743	938.39343	1464.77539	980.91949	951.21240	1230.23047	1178.08252	634.57385	1276.47717	1240.74097	474.90085	1277.87646	1237.26831	274.76544	1318.08447	1265.58435	68.05373	1357.67090	1227.42725	34.98572	1339.61035	1415.75671	40.36857	1569.61780	1044.64417	638.55151	1554.92407	1023.19574	457.57687	1561.86536	880.13525	320.50583	1523.79004	733.81628	159.93167	1470.68408	685.27783	159.89003	1509.53687	814.84467	35.91448	1344.77222	981.49030	1649.07764																					 
197	1.960	1279.28882	1082.36609	1609.49731	1410.41028	1100.36890	1627.37817	1308.04407	974.74469	1533.78833	1435.26880	996.68799	1551.69714	1367.40198	987.38812	1390.40552	1383.99670	984.65631	1078.43262	1361.12207	1115.60645	1326.80566	1361.98230	1176.16602	1166.89624	1474.26550	960.68683	1216.91870	1207.58643	1055.50354	1354.47217	1149.65454	1020.30670	1154.85938	1144.69482	1003.00012	1032.20740	1145.95349	988.40137	901.62524	1176.14185	960.61896	783.44550	1121.23816	947.90637	795.90637	1140.52136	894.55182	723.46570	1522.36609	1079.71277	1354.82190	1609.39441	1140.35046	1149.69836	1621.62537	1192.56836	1050.98047	1610.01245	1268.55261	940.37903	1558.63184	1317.77209	861.27258	1613.07605	1322.09009	857.94635	1585.61401	1372.76318	811.43848	1272.98340	1162.97046	930.03699	1508.51514	1156.56250	927.53204	1313.39050	999.27289	939.82251	1463.34521	995.87598	951.33966	1227.50391	1189.86816	635.55615	1274.77954	1254.69885	476.25092	1275.58423	1247.45422	275.19696	1318.94470	1266.20447	68.35322	1357.92798	1228.11511	35.42109	1338.86536	1417.30298	39.13450	1568.71350	1064.68274	637.12061	1556.31104	1047.51733	455.94193	1561.76941	900.05457	323.78320	1522.50574	749.27637	168.36931	1467.60510	703.20276	172.12630	1508.63232	816.60358	35.95132	1341.37524	994.51306	1649.46667																					 
198	1.970	1276.15576	1095.32971	1610.06177	1407.33826	1113.26172	1627.87646	1304.72595	987.74438	1534.37073	1432.05945	1009.51740	1552.21118	1364.05151	1000.87817	1390.73901	1381.20264	998.18744	1079.07068	1358.47510	1129.12134	1327.52515	1359.96436	1189.99756	1167.80518	1471.28455	973.91449	1217.53784	1204.80054	1069.74072	1354.90942	1146.64441	1036.27820	1155.05212	1142.15112	1019.15607	1032.31848	1143.61670	1005.21869	901.80188	1173.78589	977.73425	783.42273	1118.67944	965.69861	795.82739	1137.76587	910.98584	723.89880	1519.48718	1092.28101	1356.23657	1606.73962	1152.30872	1150.85547	1618.81689	1203.94482	1051.75952	1607.80432	1279.32544	940.63812	1556.78857	1328.30676	861.12317	1611.22339	1332.31946	857.81097	1584.19104	1382.69348	810.50854	1271.00793	1177.15894	931.84369	1505.77466	1171.25549	928.33563	1311.77832	1013.12524	941.56500	1461.97559	1010.41998	951.40717	1225.58435	1200.96765	635.85028	1273.34412	1267.81812	477.06583	1274.42651	1255.43652	275.51556	1319.28589	1267.50110	68.57536	1357.93628	1228.76978	35.79197	1340.44519	1418.87390	38.28689	1568.16541	1085.26367	635.50879	1556.84290	1072.78979	454.10788	1561.49475	921.86359	326.79755	1521.94641	767.55414	175.58066	1465.43628	723.99945	184.25229	1507.11938	817.76074	36.11431	1338.30859	1007.85809	1650.42310																					 
